<?xml version="1.0" encoding="UTF-8"?>
<svg
  id="Layer_1"
  data-name="Layer 1"
  xmlns="http://www.w3.org/2000/svg"
  width="574.02"
  height="548"
  viewBox="0 0 574.02 548"
>
  <defs>
    <style>
      .cls-1 {
        letter-spacing: 0.06em;
      }

      .cls-2 {
        letter-spacing: 0.04em;
      }

      .cls-3 {
        fill: #f19e38;
      }

      .cls-4 {
        fill: #2b2b2b;
      }

      .cls-5 {
        letter-spacing: 0.02em;
      }

      .cls-6 {
        fill: #f4f4f4;
        font-family: MyriadPro-Regular, "Myriad Pro";
        font-size: 170.63px;
      }
      @media (prefers-color-scheme: dark) {
        .cls-4 {
          fill: white;
        }
      }
    </style>
  </defs>
  <g>
    <path class="cls-4" d="m333,176l56,25v145l-56,25v-195Z" />
    <path class="cls-4" d="m442,72l56,25v355l-56,25V72Z" />
    <path class="cls-4" d="m280,0L112,74.4v399.8l168,73.8V0Zm-57,418l-56,25V104l56,25v289Z" />
    <path class="cls-4" d="m0,124v301l56,24.6V99.2L0,124Z" />
  </g>
  <polygon
    class="cls-3"
    points="574.02 358.24 79.02 544.24 79.02 372.24 574.02 186.24 574.02 358.24"
  />
  <text class="cls-6" transform="translate(185.52 474) rotate(-21.31)">
    <tspan class="cls-2" x="0" y="0">b</tspan>
    <tspan class="cls-5" x="103.91" y="0">e</tspan>
    <tspan class="cls-1" x="192.81" y="0">t</tspan>
    <tspan x="259.52" y="0">a</tspan>
  </text>
</svg>
